# xmcd CD database file
#
# Track frame offsets:
#	150
#	11455
#	31362
#	50140
#	63088
#	77900
#	93109
#	112312
#	123666
#	140918
#	153041
#	165207
#	182614
#
# Disc length: 2659 seconds
#
# Revision: 1
# Processed by: cddbd v1.5.2PL0 Copyright (c) Steve Scherf et al.
# Submitted via: CDex 1.70beta2
#
DISCID=a50a610d
DTITLE=Urszula Dudkowiak - Dobry jest Bog
DYEAR=2006
DGENRE=Vocal
TTITLE0=Kto wstapi na gore Pana
TTITLE1=Mocy moja
TTITLE2=Bogiem moim jest Adonai
TTITLE3=Bogu ufam
TTITLE4=Uczyn me serce
TTITLE5=Jak liczne sa dziela Twoje
TTITLE6=Wokol tyle
TTITLE7=Niech beda opasane
TTITLE8=Dreczono Go
TTITLE9=Podalem grzbiet swoj
TTITLE10=Naklon me serce
TTITLE11=Na gorze Syjon
TTITLE12=Niech Cie strzeze...
EXTD=YEAR: 2006
EXTT0=
EXTT1=
EXTT2=
EXTT3=
EXTT4=
EXTT5=
EXTT6=
EXTT7=
EXTT8=
EXTT9=
EXTT10=
EXTT11=
EXTT12=
PLAYORDER=
